HIERARCHY
ROOT hip
{
	OFFSET 0.000000 0.000000 0.000000 
	CHANNELS 6 Xposition Yposition Zposition Xrotation Zrotation Yrotation
	JOINT abdomen
	{
		OFFSET 0.000000 3.402643 0.000000 
		CHANNELS 3 Xrotation Zrotation Yrotation
		JOINT chest
		{
			OFFSET 0.000000 8.438565 -0.680529 
			CHANNELS 3 Xrotation Zrotation Yrotation
			JOINT neck
			{
				OFFSET 0.000000 10.207942 -0.272212 
				CHANNELS 3 Xrotation Zrotation Yrotation
				JOINT head
				{
					OFFSET 0.000000 3.130431 0.000000 
					CHANNELS 3 Xrotation Zrotation Yrotation
					End Site
					{
						OFFSET 0.000000 3.130435 0.000000 
					}
				}
			}
			JOINT lCollar
			{
				OFFSET 3.470700 6.669187 -0.816635 
				CHANNELS 3 Yrotation Zrotation Xrotation
				JOINT lShldr
				{
					OFFSET 3.198488 0.000000 0.000000 
					CHANNELS 3 Zrotation Yrotation Xrotation
					JOINT lForeArm
					{
						OFFSET 10.139888 0.000000 0.000000 
						CHANNELS 3 Yrotation Zrotation Xrotation
						JOINT lHand
						{
							OFFSET 8.370511 0.000000 0.000000 
							CHANNELS 3 Zrotation Yrotation Xrotation
							End Site
							{
								OFFSET 4.083176 0.000000 0.000000 
							}
						}
					}
				}
			}
			JOINT rCollar
			{
				OFFSET -3.470700 6.669187 -0.816635 
				CHANNELS 3 Yrotation Zrotation Xrotation
				JOINT rShldr
				{
					OFFSET -3.198488 0.000000 0.000000 
					CHANNELS 3 Zrotation Yrotation Xrotation
					JOINT rForeArm
					{
						OFFSET -10.139888 0.000000 0.000000 
						CHANNELS 3 Yrotation Zrotation Xrotation
						JOINT rHand
						{
							OFFSET -8.370511 0.000000 0.000000 
							CHANNELS 3 Zrotation Yrotation Xrotation
							End Site
							{
								OFFSET -4.083176 0.000000 0.000000 
							}
						}
					}
				}
			}
		}
	}
	JOINT lThigh
	{
		OFFSET 5.308129 -1.633274 1.361059 
		CHANNELS 3 Xrotation Zrotation Yrotation
		JOINT lShin
		{
			OFFSET -2.041588 -20.007561 0.000000 
			CHANNELS 3 Xrotation Zrotation Yrotation
			JOINT lFoot
			{
				OFFSET 0.000000 -19.190928 -1.224953 
				CHANNELS 3 Xrotation Yrotation Zrotation
				End Site
				{
					OFFSET 0.000000 -2.449906 4.627600 
				}
			}
		}
	}
	JOINT rThigh
	{
		OFFSET -5.308129 -1.633274 1.361059 
		CHANNELS 3 Xrotation Zrotation Yrotation
		JOINT rShin
		{
			OFFSET 2.041588 -20.007561 0.000000 
			CHANNELS 3 Xrotation Zrotation Yrotation
			JOINT rFoot
			{
				OFFSET 0.000000 -19.190928 -1.224953 
				CHANNELS 3 Xrotation Yrotation Zrotation
				End Site
				{
					OFFSET 0.000000 -2.449906 4.627600 
				}
			}
		}
	}
}
MOTION
Frames: 13
Frame Time: 0.033333
-21.891628 49.342369 18.063387 -1.491063 1.007510 111.207764 0.000000 0.000000 0.000000 -4.166125 2.836592 -3.470760 0.259049 0.652837 -3.828321 10.485007 0.692984 -1.884864 -12.452449 -2.484941 -3.008217 -69.267487 0.279764 36.744282 -104.936745 5.365546 -69.592606 3.319510 18.083683 -3.278942 11.173797 13.660176 -5.090271 54.357559 -19.808592 21.216795 88.257050 -2.318208 -56.908516 -11.612475 -39.316547 -0.202268 -3.875619 15.810989 6.797373 11.957350 -0.137327 -5.920137 -7.098608 0.760720 -12.646532 -7.546172 -2.040694 -1.541790 21.606253 4.582011 -7.217906 -13.581609 -0.103815 0.700581 
-21.974869 49.336170 17.841606 -1.298669 0.733164 111.150116 0.000000 0.000000 0.000000 -4.156198 2.680656 -3.460551 0.282994 0.477605 -3.535277 10.869691 0.985909 -1.670010 -12.569303 -2.964947 -3.065714 -68.371117 3.784108 35.548779 -103.859589 5.132792 -67.811417 0.710274 19.934992 -3.633194 11.155350 13.647233 -5.060184 54.026798 -20.791264 21.942125 89.139214 -2.450895 -56.214073 -13.114318 -33.730968 -0.345296 -4.412412 15.235494 6.367390 12.702408 -0.137062 -5.315129 -7.453287 0.785005 -12.380984 -7.884974 -2.586066 -1.703455 21.950552 4.501080 -6.873481 -13.686748 -0.140820 0.976838 
-22.068899 49.379761 17.586996 -1.206389 0.704664 111.141205 0.000000 0.000000 0.000000 -4.028090 2.631808 -3.499576 0.392479 0.458163 -3.427781 11.264135 0.937169 -1.523553 -12.607874 -3.095716 -2.951050 -67.938339 6.443628 33.790520 -101.593559 4.665744 -66.852478 1.565576 21.256147 -3.503146 11.086488 13.730444 -4.953907 53.956783 -21.247799 21.993664 89.416801 -2.520045 -54.837700 -10.872583 -28.682478 -1.404722 -4.355491 14.794176 6.119613 12.658895 -0.147892 -5.168143 -7.511273 0.781858 -12.074190 -7.687129 -3.131329 -1.955944 21.571732 4.599599 -6.663262 -13.430865 -0.192327 1.189995 
-22.207565 49.376778 17.411718 -1.411997 0.393089 110.865646 0.000000 0.000000 0.000000 -4.127521 2.681193 -3.264997 0.402868 0.477764 -3.212942 11.304129 0.556459 -1.464870 -12.337011 -3.018555 -3.058927 -68.044601 8.726089 30.799963 -99.167992 3.816093 -64.586006 -0.808359 21.381697 -3.883715 11.178319 13.660140 -5.029498 54.116089 -21.423916 21.914286 89.724724 -2.624846 -53.576488 -7.688553 -24.372206 -2.375723 -5.125836 14.731215 5.964157 13.545746 -0.276648 -4.952143 -7.969032 0.806550 -11.767680 -8.140156 -3.269836 -1.818293 21.553646 4.430403 -6.333102 -13.269977 -0.213626 1.506378 
-22.339796 49.412247 17.177172 -1.656096 0.342390 110.739525 0.000000 0.000000 0.000000 -4.063338 2.857017 -3.148407 0.419979 0.565651 -2.959033 11.141933 0.439330 -1.357457 -12.017179 -2.811231 -2.966015 -68.102982 10.112653 27.927635 -97.901772 3.133350 -62.600357 0.322740 21.956396 -3.717671 11.165627 13.875546 -4.985613 54.189091 -21.061543 21.874056 90.115669 -2.683389 -52.064732 -6.145031 -18.940140 -2.886570 -5.595538 14.725415 6.004564 14.205181 -0.471474 -4.472672 -8.150354 0.798026 -11.327365 -8.011164 -3.376426 -1.812014 20.942635 4.474797 -6.326293 -12.865870 -0.246161 1.728352 
-22.436377 49.415688 16.887230 -1.441554 0.236384 110.535835 0.000000 0.000000 0.000000 -4.006835 2.681916 -2.981647 0.280942 0.253621 -2.714860 11.448181 0.693159 -1.376971 -11.751221 -3.159442 -2.960513 -67.731094 11.234028 25.563879 -97.786873 2.719916 -59.389935 3.010430 20.620808 -3.289663 11.255998 13.608828 -4.888171 54.633930 -20.285542 21.935999 90.641205 -2.797771 -51.293800 -5.648718 -15.031204 -3.097261 -5.877854 14.146873 5.741767 14.840411 -0.608334 -3.841981 -8.473050 0.788969 -10.933809 -8.070930 -3.864649 -1.772009 21.055046 4.098698 -5.465374 -12.924836 -0.295068 2.183591 
-22.569662 49.454529 16.568687 -1.160984 0.488872 110.639069 0.000000 0.000000 0.000000 -3.741281 2.516280 -2.912922 0.666021 0.165832 -2.695301 11.140860 0.488146 -1.347690 -11.676538 -3.302017 -2.760161 -67.523430 11.225847 23.777771 -97.503738 2.564444 -57.885040 2.871592 23.492498 -3.269429 11.249015 13.508813 -4.617448 54.998348 -18.881756 21.754766 91.770378 -2.941837 -53.472607 -8.919119 -16.335327 -2.673882 -5.642450 13.499333 5.457914 14.922845 -0.588962 -3.473053 -8.487707 0.752009 -10.511190 -7.495459 -4.713835 -2.307359 20.694057 4.411030 -4.944848 -12.676334 -0.296707 2.334134 
-22.724541 49.484638 16.275425 -0.877865 0.488651 110.629303 0.000000 0.000000 0.000000 -3.688513 2.243661 -2.667794 0.725754 -0.068289 -2.597666 11.374650 0.478363 -1.445344 -11.650865 -3.565287 -2.771247 -67.042236 10.863502 22.774160 -97.564545 2.591022 -55.283413 0.963233 25.193243 -3.621820 11.378051 13.145672 -4.501014 55.573246 -17.513165 22.152493 92.288078 -3.112734 -54.178539 -11.653700 -13.975949 -2.570377 -5.506845 12.878170 5.217385 14.881265 -0.674131 -3.734092 -8.595678 0.734463 -10.103573 -7.273172 -5.379114 -2.526669 20.481287 4.324049 -4.674459 -12.500194 -0.353360 2.718363 
-22.903778 49.491039 15.957570 -0.796959 0.127796 110.712524 0.000000 0.000000 0.000000 -3.907765 1.999957 -2.560102 0.400575 -0.224389 -2.539120 11.938957 0.546691 -1.484401 -11.516578 -3.825019 -3.023043 -66.439102 10.181781 22.268387 -97.118141 2.641186 -51.680866 -4.890681 25.641064 -4.795433 11.626025 13.146017 -4.714255 55.683559 -15.894320 22.831076 92.818558 -3.304424 -55.698570 -16.050247 -12.395729 -2.356914 -6.228871 12.242210 4.833487 15.505921 -0.813394 -3.085902 -8.778517 0.691463 -9.612993 -7.704308 -5.956425 -2.535079 20.445223 4.080800 -4.834147 -12.283416 -0.399286 3.325318 
-23.100470 49.492943 15.654478 -0.806262 -0.405889 110.621140 0.000000 0.000000 0.000000 -4.292257 1.795371 -2.344740 0.089236 -0.497609 -2.402508 12.042439 0.663816 -1.562508 -11.386327 -4.210330 -3.439062 -65.794052 9.140310 22.001854 -97.252136 2.852833 -47.754124 -7.563803 25.467310 -5.318352 11.964232 12.850449 -5.039566 56.160713 -14.032683 23.364010 92.506416 -3.349714 -57.269527 -20.171700 -10.497633 -2.334391 -7.177742 11.747916 4.587533 16.158411 -1.085696 -2.262236 -8.913054 0.674598 -9.119000 -8.431499 -6.606296 -2.571031 20.401674 4.010961 -4.916603 -11.920081 -0.447800 3.830806 
-23.257404 49.501644 15.297192 -0.485234 0.069577 110.869034 0.000000 0.000000 0.000000 -3.908406 1.541773 -2.256619 0.309821 -0.604883 -2.519700 11.941801 0.702809 -1.718860 -11.287383 -4.469860 -3.143301 -65.609932 7.473723 22.004072 -97.310089 3.150813 -43.063770 -8.488038 24.054440 -5.372060 11.914064 12.942249 -4.677075 56.228149 -12.131808 23.953318 92.262787 -3.430797 -59.506241 -23.415197 -10.037295 -2.228748 -6.960625 11.303973 4.623860 16.710199 -1.438509 -2.616393 -9.189076 0.662418 -8.378164 -7.636175 -7.196669 -2.805215 20.177872 3.855224 -4.286964 -11.860649 -0.502516 4.281108 
-23.422945 49.544712 14.909825 -0.237029 0.196206 111.024529 0.000000 0.000000 0.000000 -3.859123 1.288072 -2.246624 0.238970 -0.741413 -2.617474 12.317987 0.527101 -1.738298 -11.359267 -4.710433 -3.144211 -65.522461 5.832211 21.910015 -97.585480 3.493734 -39.060829 -10.926905 24.385149 -5.856440 11.879174 12.657855 -4.582204 56.710045 -10.295002 24.412762 91.903938 -3.388575 -61.120098 -25.869514 -8.613712 -2.385249 -6.704651 10.655924 4.420229 16.616959 -1.565429 -2.744518 -9.214762 0.612414 -7.799419 -6.990161 -7.848904 -3.047701 19.499002 3.749178 -4.023134 -11.539146 -0.528111 4.764562 
-23.609215 49.564945 14.493811 -0.069175 0.364209 111.012611 0.000000 0.000000 0.000000 -3.801299 1.122279 -2.119499 0.290065 -0.799965 -2.588183 12.320062 0.458773 -1.738304 -11.317809 -4.861279 -3.135181 -65.574654 3.797375 22.245665 -97.472794 3.901767 -34.616596 -13.561931 23.667974 -6.256430 12.056049 12.510209 -4.507412 56.952011 -8.694005 24.289799 91.388779 -3.319985 -61.775372 -26.341864 -8.737663 -2.327157 -6.571786 10.145346 4.341533 16.960520 -1.770762 -3.071520 -9.535071 0.557734 -7.131590 -6.500941 -8.442897 -3.296894 19.002243 3.661878 -3.916888 -11.173402 -0.569948 5.281725 
